<svg width="300" height="299" xmlns="http://www.w3.org/2000/svg" xmlns:xlink="http://www.w3.org/1999/xlink" xml:space="preserve" overflow="hidden"><g transform="translate(-479 -186)"><path d="M255.396 93.4375C255.396 86.5571 249.818 80.9792 242.938 80.9792L137.042 80.9792 137.042 34.2604 68.5208 34.2604 68.5208 80.9792 56.0625 80.9792C49.1821 80.9792 43.6042 86.5571 43.6042 93.4375L43.6042 130.812 24.9167 174.417 24.9167 255.396 274.083 255.396 274.083 174.417 255.396 130.812ZM74.75 40.4896 130.812 40.4896 130.812 127.698 74.75 127.698ZM267.854 249.167 31.1458 249.167 31.1458 202.448 267.854 202.448ZM267.854 175.697 267.854 196.219 31.1458 196.219 31.1458 175.697 49.3288 133.267 49.8333 132.093 49.8333 93.4375C49.8333 89.9971 52.6221 87.2083 56.0625 87.2083L68.5208 87.2083 68.5208 133.927 137.042 133.927 137.042 87.2083 242.938 87.2083C246.378 87.2083 249.167 89.9971 249.167 93.4375L249.167 132.093 249.671 133.267Z" fill="#4E95D9" fill-opacity="0.8" transform="matrix(1.00334 0 0 1 479 186)"/><path d="M87.2083 59.1771 118.354 59.1771 118.354 65.4062 87.2083 65.4062Z" fill="#4E95D9" fill-opacity="0.8" transform="matrix(1.00334 0 0 1 479 186)"/><path d="M87.2083 80.9792 118.354 80.9792 118.354 87.2083 87.2083 87.2083Z" fill="#4E95D9" fill-opacity="0.8" transform="matrix(1.00334 0 0 1 479 186)"/><path d="M87.2083 102.781 118.354 102.781 118.354 109.01 87.2083 109.01Z" fill="#4E95D9" fill-opacity="0.8" transform="matrix(1.00334 0 0 1 479 186)"/><path d="M158.844 133.927 236.708 133.927 236.708 99.6667 158.844 99.6667ZM165.073 105.896 230.479 105.896 230.479 127.698 165.073 127.698Z" fill="#4E95D9" fill-opacity="0.8" transform="matrix(1.00334 0 0 1 479 186)"/><path d="M149.5 236.708C155.52 236.708 160.401 231.828 160.401 225.807 160.401 219.787 155.52 214.906 149.5 214.906 143.48 214.906 138.599 219.787 138.599 225.807 138.599 231.828 143.48 236.708 149.5 236.708ZM149.5 221.135C152.08 221.135 154.172 223.227 154.172 225.807 154.172 228.387 152.08 230.479 149.5 230.479 146.92 230.479 144.828 228.387 144.828 225.807 144.828 223.227 146.92 221.135 149.5 221.135Z" fill="#4E95D9" fill-opacity="0.8" transform="matrix(1.00334 0 0 1 479 186)"/></g></svg>